<svg xmlns="http://www.w3.org/2000/svg" width="800" height="600" viewBox="0 0 800 600" preserveAspectRatio="xMidYMid slice"><defs><linearGradient id="sky" x1="0" y1="0" x2="0" y2="1"><stop offset="0" stop-color="#3D5A7A"/><stop offset=".55" stop-color="#E3A57C"/><stop offset="1" stop-color="#F6D7A3"/></linearGradient><radialGradient id="glow"><stop offset="0" stop-color="#fff" stop-opacity=".85"/><stop offset="1" stop-color="#fff" stop-opacity="0"/></radialGradient><radialGradient id="tglow"><stop offset="0" stop-color="#F2A94E" stop-opacity=".75"/><stop offset="1" stop-color="#F2A94E" stop-opacity="0"/></radialGradient><linearGradient id="mist" x1="0" y1="0" x2="0" y2="1"><stop offset="0" stop-color="#fff" stop-opacity="0"/><stop offset=".5" stop-color="#fff" stop-opacity=".5"/><stop offset="1" stop-color="#fff" stop-opacity="0"/></linearGradient></defs><rect width="800" height="600" fill="url(#sky)"/><circle cx="470" cy="300" r="132" fill="url(#glow)" opacity=".8"/><circle cx="470" cy="300" r="22" fill="#FFE7B0"/><path d="M0,620.0 L0,282.2 L16,273.7 L32,251.9 L48,257.0 L64,258.1 L80,266.6 L96,266.0 L112,258.9 L128,258.1 L144,251.1 L160,235.0 L176,225.8 L192,217.2 L208,213.0 L224,217.9 L240,220.7 L256,214.2 L272,200.1 L288,223.2 L304,233.1 L320,226.9 L336,223.0 L352,228.5 L368,225.6 L384,228.7 L400,239.1 L416,247.4 L432,239.0 L448,217.4 L464,218.2 L480,228.7 L496,229.4 L512,229.4 L528,234.7 L544,239.8 L560,240.1 L576,242.1 L592,250.3 L608,241.7 L624,234.7 L640,229.0 L656,220.7 L672,217.3 L688,217.8 L704,198.5 L720,198.3 L736,216.2 L752,219.7 L768,214.2 L784,208.7 L800,204.9 L816,211.5 L816,620.0 Z" fill="#B98B92"/><rect x="0" y="300" width="800" height="120" fill="url(#mist)" opacity="1.00"/><path d="M0,620.0 L0,355.4 L16,340.7 L32,329.1 L48,328.3 L64,325.8 L80,304.3 L96,292.6 L112,310.6 L128,318.3 L144,327.0 L160,331.6 L176,335.5 L192,339.8 L208,339.0 L224,345.7 L240,351.5 L256,349.7 L272,338.9 L288,329.7 L304,314.1 L320,301.9 L336,283.3 L352,302.3 L368,317.0 L384,330.2 L400,334.2 L416,330.8 L432,339.4 L448,357.7 L464,366.7 L480,363.5 L496,353.3 L512,357.7 L528,346.8 L544,321.0 L560,285.7 L576,275.9 L592,301.3 L608,321.6 L624,338.0 L640,340.5 L656,332.2 L672,319.1 L688,324.8 L704,320.8 L720,324.9 L736,308.1 L752,306.3 L768,321.4 L784,343.7 L800,355.3 L816,358.1 L816,620.0 Z" fill="#8E7686"/><rect x="0" y="360" width="800" height="110" fill="url(#mist)" opacity="1.00"/><path d="M0,620.0 L0,412.7 L16,403.8 L32,412.8 L48,421.9 L64,416.7 L80,400.3 L96,384.7 L112,364.1 L128,374.9 L144,395.1 L160,397.8 L176,395.1 L192,406.9 L208,397.5 L224,391.8 L240,391.2 L256,396.0 L272,393.7 L288,385.4 L304,397.0 L320,395.9 L336,406.1 L352,410.5 L368,400.5 L384,389.1 L400,394.0 L416,398.4 L432,423.2 L448,425.3 L464,429.5 L480,432.2 L496,428.7 L512,434.7 L528,439.4 L544,440.5 L560,434.1 L576,418.4 L592,426.7 L608,417.8 L624,436.5 L640,431.8 L656,413.8 L672,381.9 L688,364.0 L704,371.7 L720,400.9 L736,413.3 L752,410.6 L768,399.9 L784,410.3 L800,406.4 L816,408.4 L816,620.0 Z" fill="#5E5A76"/><path d="M0,620.0 L0,488.7 L16,485.8 L32,488.0 L48,495.4 L64,496.7 L80,499.3 L96,499.2 L112,499.8 L128,501.4 L144,501.1 L160,497.8 L176,494.7 L192,493.6 L208,490.9 L224,490.7 L240,485.3 L256,483.9 L272,478.9 L288,477.7 L304,476.1 L320,473.5 L336,464.4 L352,468.1 L368,472.3 L384,474.8 L400,478.2 L416,470.5 L432,468.4 L448,471.6 L464,466.0 L480,463.2 L496,462.3 L512,459.9 L528,459.3 L544,453.4 L560,460.6 L576,464.7 L592,464.3 L608,467.4 L624,459.9 L640,471.5 L656,474.4 L672,473.3 L688,475.4 L704,475.2 L720,473.8 L736,474.9 L752,488.4 L768,501.7 L784,510.8 L800,510.2 L816,513.0 L816,620.0 Z" fill="#33415A"/><path d="M27.0,458.4 L27.0,458.4 L37.0,490.5 L30.1,481.5 L41.3,513.6 L31.1,504.5 L45.6,536.6 L32.0,527.6 L49.9,559.6 L33.0,550.6 L54.2,582.7 L33.9,573.7 L58.5,605.7 L39.0,605.7 L39.0,608.8 L15.0,608.8 L15.0,605.7 L20.0,573.7 L-4.6,605.7 L21.0,550.6 L-0.3,582.7 L21.9,527.6 L4.0,559.6 L22.9,504.5 L8.4,536.6 L23.8,481.5 L12.7,513.6 L27.0,458.4 L17.0,490.5 Z M132.0,462.2 L132.0,462.2 L141.7,493.5 L135.1,484.7 L146.0,515.9 L136.0,507.1 L150.2,538.4 L136.9,529.6 L154.4,560.9 L137.8,552.1 L158.6,583.4 L138.8,574.6 L162.8,605.9 L143.7,605.9 L143.7,608.8 L120.3,608.8 L120.3,605.9 L125.2,574.6 L101.2,605.9 L126.1,552.1 L105.4,583.4 L127.1,529.6 L109.6,560.9 L128.0,507.1 L113.8,538.4 L128.9,484.7 L118.0,515.9 L132.0,462.2 L122.2,493.5 Z M333.5,393.1 L333.5,393.1 L348.1,440.1 L338.1,426.9 L354.4,473.8 L339.5,460.6 L360.7,507.6 L340.9,494.4 L367.1,541.3 L342.3,528.1 L373.4,575.0 L343.6,561.8 L379.7,608.8 L351.1,608.8 L351.1,613.2 L315.9,613.2 L315.9,608.8 L323.3,561.8 L287.3,608.8 L324.7,528.1 L293.6,575.0 L326.1,494.4 L299.9,541.3 L327.5,460.6 L306.2,507.6 L328.9,426.9 L312.5,473.8 L333.5,393.1 L318.8,440.1 Z M368.2,413.7 L368.2,413.7 L381.1,455.0 L372.3,443.3 L386.7,484.7 L373.5,473.0 L392.2,514.4 L374.7,502.7 L397.8,544.1 L375.9,532.4 L403.3,573.8 L377.2,562.1 L408.9,603.4 L383.7,603.4 L383.7,607.3 L352.7,607.3 L352.7,603.4 L359.3,562.1 L327.6,603.4 L360.5,532.4 L333.1,573.8 L361.7,502.7 L338.7,544.1 L362.9,473.0 L344.2,514.4 L364.2,443.3 L349.8,484.7 L368.2,413.7 L355.3,455.0 Z M476.9,456.0 L476.9,456.0 L486.9,488.1 L480.0,479.0 L491.2,511.2 L481.0,502.1 L495.5,534.3 L481.9,525.2 L499.9,557.4 L482.9,548.3 L504.2,580.5 L483.8,571.4 L508.5,603.6 L488.9,603.6 L488.9,606.6 L464.8,606.6 L464.8,603.6 L469.9,571.4 L445.2,603.6 L470.9,548.3 L449.6,580.5 L471.8,525.2 L453.9,557.4 L472.8,502.1 L458.2,534.3 L473.7,479.0 L462.5,511.2 L476.9,456.0 L466.9,488.1 Z M677.4,390.8 L677.4,390.8 L692.2,438.3 L682.1,425.0 L698.6,472.5 L683.5,459.1 L705.0,506.7 L684.9,493.3 L711.4,540.9 L686.3,527.5 L717.8,575.0 L687.7,561.7 L724.2,609.2 L695.3,609.2 L695.3,613.7 L659.6,613.7 L659.6,609.2 L667.1,561.7 L630.6,609.2 L668.5,527.5 L637.0,575.0 L669.9,493.3 L643.4,540.9 L671.4,459.1 L649.8,506.7 L672.8,425.0 L656.2,472.5 L677.4,390.8 L662.6,438.3 Z M777.2,448.4 L777.2,448.4 L787.8,482.4 L780.5,472.8 L792.4,506.8 L781.5,497.2 L796.9,531.2 L782.5,521.7 L801.5,555.7 L783.5,546.1 L806.1,580.1 L784.6,570.5 L810.7,604.5 L789.9,604.5 L789.9,607.7 L764.4,607.7 L764.4,604.5 L769.8,570.5 L743.7,604.5 L770.8,546.1 L748.3,580.1 L771.8,521.7 L752.9,555.7 L772.9,497.2 L757.5,531.2 L773.9,472.8 L762.0,506.8 L777.2,448.4 L766.6,482.4 Z" fill="#14211F" opacity="1"/></svg>