<svg xmlns="http://www.w3.org/2000/svg" width="800" height="600" viewBox="0 0 800 600" preserveAspectRatio="xMidYMid slice"><defs><linearGradient id="sky" x1="0" y1="0" x2="0" y2="1"><stop offset="0" stop-color="#5C93B5"/><stop offset=".55" stop-color="#B7D7DF"/><stop offset="1" stop-color="#F1EFD9"/></linearGradient><radialGradient id="glow"><stop offset="0" stop-color="#fff" stop-opacity=".85"/><stop offset="1" stop-color="#fff" stop-opacity="0"/></radialGradient><radialGradient id="tglow"><stop offset="0" stop-color="#F2A94E" stop-opacity=".75"/><stop offset="1" stop-color="#F2A94E" stop-opacity="0"/></radialGradient><linearGradient id="mist" x1="0" y1="0" x2="0" y2="1"><stop offset="0" stop-color="#fff" stop-opacity="0"/><stop offset=".5" stop-color="#fff" stop-opacity=".5"/><stop offset="1" stop-color="#fff" stop-opacity="0"/></linearGradient></defs><rect width="800" height="600" fill="url(#sky)"/><circle cx="610" cy="180" r="120" fill="url(#glow)" opacity=".8"/><circle cx="610" cy="180" r="20" fill="#fff"/><path d="M0,620.0 L0,212.8 L16,221.7 L32,220.3 L48,212.1 L64,198.2 L80,186.8 L96,192.0 L112,201.1 L128,206.1 L144,207.4 L160,205.8 L176,202.2 L192,213.6 L208,230.6 L224,244.5 L240,254.0 L256,258.4 L272,255.3 L288,244.6 L304,238.0 L320,232.0 L336,241.2 L352,242.4 L368,236.1 L384,233.6 L400,224.8 L416,208.3 L432,194.2 L448,206.7 L464,209.6 L480,237.2 L496,260.7 L512,274.2 L528,279.6 L544,280.8 L560,282.4 L576,284.1 L592,282.8 L608,275.1 L624,258.6 L640,262.3 L656,280.5 L672,291.4 L688,296.2 L704,297.4 L720,294.8 L736,284.4 L752,284.8 L768,292.4 L784,292.6 L800,290.7 L816,287.9 L816,620.0 Z" fill="#8DABB7"/><rect x="0" y="280" width="800" height="100" fill="url(#mist)" opacity="0.70"/><path d="M0,620.0 L0,322.4 L16,325.0 L32,326.9 L48,328.4 L64,329.2 L80,328.7 L96,325.9 L112,319.8 L128,312.4 L144,305.7 L160,301.1 L176,297.4 L192,294.6 L208,292.6 L224,291.6 L240,291.1 L256,291.0 L272,291.3 L288,292.0 L304,293.7 L320,295.8 L336,298.0 L352,300.0 L368,302.2 L384,304.6 L400,307.1 L416,310.3 L432,313.9 L448,317.0 L464,318.7 L480,318.2 L496,316.0 L512,312.9 L528,310.1 L544,308.2 L560,306.9 L576,305.4 L592,303.1 L608,299.3 L624,294.8 L640,291.0 L656,288.8 L672,287.0 L688,285.3 L704,283.8 L720,282.6 L736,282.4 L752,283.3 L768,284.9 L784,287.2 L800,290.8 L816,294.4 L816,620.0 Z" fill="#557C72"/><path d="M377.0,345.0 L382.0,346.0 L386.1,347.9 L390.3,350.2 L394.6,353.1 L398.9,356.3 L403.2,359.8 L407.5,363.7 L411.6,367.8 L415.5,372.2 L419.1,376.9 L422.3,381.8 L425.0,386.9 L427.2,392.2 L428.8,397.8 L429.7,403.6 L429.8,409.5 L429.2,415.7 L427.7,422.0 L425.3,428.5 L422.0,435.2 L417.7,442.0 L412.5,449.0 L406.3,456.2 L399.0,463.5 L390.8,471.0 L381.6,478.6 L371.5,486.4 L360.4,494.3 L348.5,502.4 L335.7,510.6 L322.2,519.0 L307.9,527.5 L293.0,536.1 L277.5,544.8 L261.5,553.7 L245.1,562.7 L228.4,571.9 L211.5,581.1 L194.5,590.5 L177.5,600.0 L423.5,600.0 L430.4,590.5 L437.5,581.1 L444.7,571.9 L451.8,562.7 L458.8,553.7 L465.5,544.8 L472.0,536.1 L478.1,527.5 L483.8,519.0 L488.9,510.6 L493.4,502.4 L497.3,494.3 L500.5,486.4 L503.0,478.6 L504.8,471.0 L505.7,463.5 L505.9,456.2 L505.4,449.0 L504.0,442.0 L501.9,435.2 L499.0,428.5 L495.4,422.0 L491.2,415.7 L486.4,409.5 L481.0,403.6 L475.1,397.8 L468.7,392.2 L462.0,386.9 L455.0,381.8 L447.8,376.9 L440.5,372.2 L433.2,367.8 L425.9,363.7 L418.8,359.8 L411.9,356.3 L405.4,353.1 L399.2,350.2 L393.6,347.9 L388.5,346.0 L383.0,345.0 Z" fill="#6FB0C8" opacity="0.85"/><path d="M79.1,430.5 L79.1,430.5 L91.5,470.1 L83.0,459.0 L96.8,498.6 L84.2,487.5 L102.1,527.1 L85.4,515.9 L107.5,555.5 L86.5,544.4 L112.8,584.0 L87.7,572.9 L118.1,612.5 L94.0,612.5 L94.0,616.2 L64.3,616.2 L64.3,612.5 L70.5,572.9 L40.1,612.5 L71.7,544.4 L45.5,584.0 L72.9,515.9 L50.8,555.5 L74.1,487.5 L56.1,527.1 L75.2,459.0 L61.4,498.6 L79.1,430.5 L66.8,470.1 Z M211.3,451.8 L211.3,451.8 L222.1,486.3 L214.7,476.6 L226.7,511.2 L215.7,501.5 L231.4,536.1 L216.7,526.3 L236.0,560.9 L217.8,551.2 L240.7,585.8 L218.8,576.0 L245.3,610.6 L224.3,610.6 L224.3,613.9 L198.3,613.9 L198.3,610.6 L203.8,576.0 L177.3,610.6 L204.8,551.2 L181.9,585.8 L205.9,526.3 L186.6,560.9 L206.9,501.5 L191.2,536.1 L207.9,476.6 L195.9,511.2 L211.3,451.8 L200.5,486.3 Z M633.8,374.9 L633.8,374.9 L649.0,423.7 L638.6,409.9 L655.5,458.7 L640.0,445.0 L662.1,493.7 L641.5,480.0 L668.7,528.8 L642.9,515.1 L675.2,563.8 L644.3,550.1 L681.8,598.9 L652.1,598.9 L652.1,603.4 L615.5,603.4 L615.5,598.9 L623.2,550.1 L585.8,598.9 L624.7,515.1 L592.4,563.8 L626.1,480.0 L598.9,528.8 L627.6,445.0 L605.5,493.7 L629.0,409.9 L612.0,458.7 L633.8,374.9 L618.6,423.7 Z M659.6,433.1 L659.6,433.1 L671.4,470.9 L663.4,460.3 L676.5,498.1 L664.5,487.5 L681.6,525.3 L665.6,514.7 L686.7,552.5 L666.7,541.8 L691.8,579.7 L667.8,569.0 L696.9,606.8 L673.8,606.8 L673.8,610.4 L645.5,610.4 L645.5,606.8 L651.5,569.0 L622.4,606.8 L652.6,541.8 L627.5,579.7 L653.7,514.7 L632.6,552.5 L654.8,487.5 L637.7,525.3 L655.9,460.3 L642.8,498.1 L659.6,433.1 L647.9,470.9 Z" fill="#173A2D" opacity="1"/></svg>